<mxfile host="65bd71144e">
    <diagram id="R2lEEEUBdFMjLlhIrx00" name="Page-1">
        <mxGraphModel dx="2152" dy="771" grid="1" gridSize="10" guides="1" tooltips="1" connect="1" arrows="1" fold="1" page="1" pageScale="1" pageWidth="850" pageHeight="1100" math="0" shadow="0" extFonts="Permanent Marker^https://fonts.googleapis.com/css?family=Permanent+Marker">
            <root>
                <mxCell id="0"/>
                <mxCell id="1" parent="0"/>
                <mxCell id="rsbw5ZafTSth3A3CcDGc-5" style="rounded=0;orthogonalLoop=1;jettySize=auto;html=1;endArrow=none;endFill=0;" parent="1" source="fN0CVLOjRrCJmLAy6cqY-1" target="rsbw5ZafTSth3A3CcDGc-3" edge="1">
                    <mxGeometry relative="1" as="geometry">
                        <Array as="points"/>
                    </mxGeometry>
                </mxCell>
                <mxCell id="w_fWHOx0zTTc7LV7o_k5-13" style="edgeStyle=none;rounded=0;orthogonalLoop=1;jettySize=auto;html=1;endArrow=none;endFill=0;" parent="1" source="fN0CVLOjRrCJmLAy6cqY-1" target="w_fWHOx0zTTc7LV7o_k5-12" edge="1">
                    <mxGeometry relative="1" as="geometry"/>
                </mxCell>
                <mxCell id="fN0CVLOjRrCJmLAy6cqY-1" value="Person" style="rounded=0;whiteSpace=wrap;html=1;" parent="1" vertex="1">
                    <mxGeometry x="410" y="400" width="120" height="60" as="geometry"/>
                </mxCell>
                <mxCell id="fN0CVLOjRrCJmLAy6cqY-22" style="rounded=0;orthogonalLoop=1;jettySize=auto;html=1;endArrow=none;endFill=0;" parent="1" source="fN0CVLOjRrCJmLAy6cqY-2" target="fN0CVLOjRrCJmLAy6cqY-1" edge="1">
                    <mxGeometry relative="1" as="geometry"/>
                </mxCell>
                <mxCell id="fN0CVLOjRrCJmLAy6cqY-2" value="&lt;u&gt;id&lt;/u&gt;" style="ellipse;whiteSpace=wrap;html=1;" parent="1" vertex="1">
                    <mxGeometry x="345" y="590" width="100" height="50" as="geometry"/>
                </mxCell>
                <mxCell id="fN0CVLOjRrCJmLAy6cqY-23" style="edgeStyle=none;rounded=0;orthogonalLoop=1;jettySize=auto;html=1;endArrow=none;endFill=0;" parent="1" source="fN0CVLOjRrCJmLAy6cqY-6" target="fN0CVLOjRrCJmLAy6cqY-1" edge="1">
                    <mxGeometry relative="1" as="geometry"/>
                </mxCell>
                <mxCell id="fN0CVLOjRrCJmLAy6cqY-6" value="firstName" style="ellipse;whiteSpace=wrap;html=1;" parent="1" vertex="1">
                    <mxGeometry x="230" y="560" width="100" height="50" as="geometry"/>
                </mxCell>
                <mxCell id="fN0CVLOjRrCJmLAy6cqY-24" style="edgeStyle=none;rounded=0;orthogonalLoop=1;jettySize=auto;html=1;endArrow=none;endFill=0;" parent="1" source="fN0CVLOjRrCJmLAy6cqY-7" target="fN0CVLOjRrCJmLAy6cqY-1" edge="1">
                    <mxGeometry relative="1" as="geometry"/>
                </mxCell>
                <mxCell id="fN0CVLOjRrCJmLAy6cqY-7" value="lastName" style="ellipse;whiteSpace=wrap;html=1;" parent="1" vertex="1">
                    <mxGeometry x="130" y="450" width="100" height="50" as="geometry"/>
                </mxCell>
                <mxCell id="fN0CVLOjRrCJmLAy6cqY-28" style="edgeStyle=none;rounded=0;orthogonalLoop=1;jettySize=auto;html=1;endArrow=none;endFill=0;" parent="1" source="fN0CVLOjRrCJmLAy6cqY-8" target="fN0CVLOjRrCJmLAy6cqY-1" edge="1">
                    <mxGeometry relative="1" as="geometry"/>
                </mxCell>
                <mxCell id="fN0CVLOjRrCJmLAy6cqY-8" value="dateOfBirth" style="ellipse;whiteSpace=wrap;html=1;" parent="1" vertex="1">
                    <mxGeometry x="100" y="380" width="100" height="50" as="geometry"/>
                </mxCell>
                <mxCell id="fN0CVLOjRrCJmLAy6cqY-30" style="edgeStyle=none;rounded=0;orthogonalLoop=1;jettySize=auto;html=1;endArrow=none;endFill=0;" parent="1" source="fN0CVLOjRrCJmLAy6cqY-9" target="fN0CVLOjRrCJmLAy6cqY-116" edge="1">
                    <mxGeometry relative="1" as="geometry"/>
                </mxCell>
                <mxCell id="fN0CVLOjRrCJmLAy6cqY-9" value="&lt;u&gt;medicareCardNum&lt;/u&gt;" style="ellipse;whiteSpace=wrap;html=1;" parent="1" vertex="1">
                    <mxGeometry x="270" y="770" width="130" height="60" as="geometry"/>
                </mxCell>
                <mxCell id="fN0CVLOjRrCJmLAy6cqY-70" style="edgeStyle=none;rounded=0;orthogonalLoop=1;jettySize=auto;html=1;startArrow=none;startFill=0;endArrow=none;endFill=0;" parent="1" source="fN0CVLOjRrCJmLAy6cqY-10" target="fN0CVLOjRrCJmLAy6cqY-116" edge="1">
                    <mxGeometry relative="1" as="geometry"/>
                </mxCell>
                <mxCell id="fN0CVLOjRrCJmLAy6cqY-10" value="medicareIssueDate" style="ellipse;whiteSpace=wrap;html=1;" parent="1" vertex="1">
                    <mxGeometry x="240" y="850" width="130" height="60" as="geometry"/>
                </mxCell>
                <mxCell id="fN0CVLOjRrCJmLAy6cqY-31" style="edgeStyle=none;rounded=0;orthogonalLoop=1;jettySize=auto;html=1;endArrow=none;endFill=0;" parent="1" source="fN0CVLOjRrCJmLAy6cqY-11" target="fN0CVLOjRrCJmLAy6cqY-116" edge="1">
                    <mxGeometry relative="1" as="geometry"/>
                </mxCell>
                <mxCell id="fN0CVLOjRrCJmLAy6cqY-11" value="medicareExpiryDate" style="ellipse;whiteSpace=wrap;html=1;" parent="1" vertex="1">
                    <mxGeometry x="255" y="930" width="130" height="60" as="geometry"/>
                </mxCell>
                <mxCell id="fN0CVLOjRrCJmLAy6cqY-26" style="edgeStyle=none;rounded=0;orthogonalLoop=1;jettySize=auto;html=1;endArrow=none;endFill=0;" parent="1" source="fN0CVLOjRrCJmLAy6cqY-13" target="fN0CVLOjRrCJmLAy6cqY-1" edge="1">
                    <mxGeometry relative="1" as="geometry"/>
                </mxCell>
                <mxCell id="fN0CVLOjRrCJmLAy6cqY-13" value="telephoneNumber" style="ellipse;whiteSpace=wrap;html=1;" parent="1" vertex="1">
                    <mxGeometry x="100" y="300" width="130" height="60" as="geometry"/>
                </mxCell>
                <mxCell id="fN0CVLOjRrCJmLAy6cqY-25" style="edgeStyle=none;rounded=0;orthogonalLoop=1;jettySize=auto;html=1;endArrow=none;endFill=0;" parent="1" source="fN0CVLOjRrCJmLAy6cqY-14" target="fN0CVLOjRrCJmLAy6cqY-1" edge="1">
                    <mxGeometry relative="1" as="geometry"/>
                </mxCell>
                <mxCell id="fN0CVLOjRrCJmLAy6cqY-14" value="address" style="ellipse;whiteSpace=wrap;html=1;" parent="1" vertex="1">
                    <mxGeometry x="185" y="240" width="100" height="50" as="geometry"/>
                </mxCell>
                <mxCell id="fN0CVLOjRrCJmLAy6cqY-36" style="edgeStyle=none;rounded=0;orthogonalLoop=1;jettySize=auto;html=1;endArrow=none;endFill=0;" parent="1" source="fN0CVLOjRrCJmLAy6cqY-15" target="fN0CVLOjRrCJmLAy6cqY-1" edge="1">
                    <mxGeometry relative="1" as="geometry"/>
                </mxCell>
                <mxCell id="fN0CVLOjRrCJmLAy6cqY-15" value="city" style="ellipse;whiteSpace=wrap;html=1;" parent="1" vertex="1">
                    <mxGeometry x="285" y="190" width="100" height="50" as="geometry"/>
                </mxCell>
                <mxCell id="fN0CVLOjRrCJmLAy6cqY-35" style="edgeStyle=none;rounded=0;orthogonalLoop=1;jettySize=auto;html=1;endArrow=none;endFill=0;" parent="1" source="fN0CVLOjRrCJmLAy6cqY-16" target="fN0CVLOjRrCJmLAy6cqY-1" edge="1">
                    <mxGeometry relative="1" as="geometry"/>
                </mxCell>
                <mxCell id="fN0CVLOjRrCJmLAy6cqY-16" value="province" style="ellipse;whiteSpace=wrap;html=1;" parent="1" vertex="1">
                    <mxGeometry x="395" y="170" width="100" height="50" as="geometry"/>
                </mxCell>
                <mxCell id="fN0CVLOjRrCJmLAy6cqY-27" style="edgeStyle=none;rounded=0;orthogonalLoop=1;jettySize=auto;html=1;endArrow=none;endFill=0;" parent="1" source="fN0CVLOjRrCJmLAy6cqY-17" target="fN0CVLOjRrCJmLAy6cqY-1" edge="1">
                    <mxGeometry relative="1" as="geometry"/>
                </mxCell>
                <mxCell id="fN0CVLOjRrCJmLAy6cqY-17" value="postalCode" style="ellipse;whiteSpace=wrap;html=1;" parent="1" vertex="1">
                    <mxGeometry x="495.64" y="190" width="100" height="50" as="geometry"/>
                </mxCell>
                <mxCell id="fN0CVLOjRrCJmLAy6cqY-33" style="edgeStyle=none;rounded=0;orthogonalLoop=1;jettySize=auto;html=1;endArrow=none;endFill=0;" parent="1" source="fN0CVLOjRrCJmLAy6cqY-18" target="fN0CVLOjRrCJmLAy6cqY-1" edge="1">
                    <mxGeometry relative="1" as="geometry"/>
                </mxCell>
                <mxCell id="fN0CVLOjRrCJmLAy6cqY-18" value="citizenship" style="ellipse;whiteSpace=wrap;html=1;" parent="1" vertex="1">
                    <mxGeometry x="575" y="240" width="100" height="50" as="geometry"/>
                </mxCell>
                <mxCell id="fN0CVLOjRrCJmLAy6cqY-34" style="edgeStyle=none;rounded=0;orthogonalLoop=1;jettySize=auto;html=1;endArrow=none;endFill=0;" parent="1" source="fN0CVLOjRrCJmLAy6cqY-19" target="fN0CVLOjRrCJmLAy6cqY-1" edge="1">
                    <mxGeometry relative="1" as="geometry"/>
                </mxCell>
                <mxCell id="fN0CVLOjRrCJmLAy6cqY-19" value="emailAddress" style="ellipse;whiteSpace=wrap;html=1;" parent="1" vertex="1">
                    <mxGeometry x="630" y="300" width="100" height="50" as="geometry"/>
                </mxCell>
                <mxCell id="fN0CVLOjRrCJmLAy6cqY-32" style="edgeStyle=none;rounded=0;orthogonalLoop=1;jettySize=auto;html=1;endArrow=none;endFill=0;" parent="1" source="fN0CVLOjRrCJmLAy6cqY-20" target="fN0CVLOjRrCJmLAy6cqY-117" edge="1">
                    <mxGeometry relative="1" as="geometry"/>
                </mxCell>
                <mxCell id="fN0CVLOjRrCJmLAy6cqY-20" value="&lt;u&gt;passportNum&lt;/u&gt;" style="ellipse;whiteSpace=wrap;html=1;" parent="1" vertex="1">
                    <mxGeometry x="675" y="952.5" width="100" height="50" as="geometry"/>
                </mxCell>
                <mxCell id="fN0CVLOjRrCJmLAy6cqY-109" style="edgeStyle=none;rounded=0;orthogonalLoop=1;jettySize=auto;html=1;startArrow=none;startFill=0;endArrow=none;endFill=0;" parent="1" source="fN0CVLOjRrCJmLAy6cqY-37" target="fN0CVLOjRrCJmLAy6cqY-108" edge="1">
                    <mxGeometry relative="1" as="geometry"/>
                </mxCell>
                <mxCell id="fN0CVLOjRrCJmLAy6cqY-37" value="HealthWorker" style="rounded=0;whiteSpace=wrap;html=1;" parent="1" vertex="1">
                    <mxGeometry x="475.64" y="1220" width="120" height="60" as="geometry"/>
                </mxCell>
                <mxCell id="fN0CVLOjRrCJmLAy6cqY-119" style="edgeStyle=none;rounded=0;orthogonalLoop=1;jettySize=auto;html=1;startArrow=none;startFill=0;endArrow=none;endFill=0;" parent="1" source="fN0CVLOjRrCJmLAy6cqY-40" target="fN0CVLOjRrCJmLAy6cqY-37" edge="1">
                    <mxGeometry relative="1" as="geometry"/>
                </mxCell>
                <mxCell id="5nXnGrNtzh2ahWJ7_uTH-4" style="edgeStyle=none;rounded=0;orthogonalLoop=1;jettySize=auto;html=1;endArrow=none;endFill=0;" parent="1" source="fN0CVLOjRrCJmLAy6cqY-40" target="fN0CVLOjRrCJmLAy6cqY-116" edge="1">
                    <mxGeometry relative="1" as="geometry"/>
                </mxCell>
                <mxCell id="fN0CVLOjRrCJmLAy6cqY-40" value="isa" style="verticalLabelPosition=middle;verticalAlign=middle;html=1;shape=mxgraph.basic.acute_triangle;dx=0.5;labelPosition=center;align=center;" parent="1" vertex="1">
                    <mxGeometry x="495.64" y="1020" width="100" height="70" as="geometry"/>
                </mxCell>
                <mxCell id="3" style="edgeStyle=none;html=1;endArrow=none;endFill=0;" edge="1" parent="1" source="fN0CVLOjRrCJmLAy6cqY-46" target="2">
                    <mxGeometry relative="1" as="geometry"/>
                </mxCell>
                <mxCell id="fN0CVLOjRrCJmLAy6cqY-46" value="PublicHealthFacilities" style="rounded=0;whiteSpace=wrap;html=1;" parent="1" vertex="1">
                    <mxGeometry x="375.64" y="1465" width="120" height="60" as="geometry"/>
                </mxCell>
                <mxCell id="fN0CVLOjRrCJmLAy6cqY-56" style="edgeStyle=none;rounded=0;orthogonalLoop=1;jettySize=auto;html=1;startArrow=none;startFill=0;endArrow=none;endFill=0;" parent="1" source="fN0CVLOjRrCJmLAy6cqY-47" target="fN0CVLOjRrCJmLAy6cqY-46" edge="1">
                    <mxGeometry relative="1" as="geometry"/>
                </mxCell>
                <mxCell id="fN0CVLOjRrCJmLAy6cqY-47" value="&lt;u&gt;name&lt;/u&gt;" style="ellipse;whiteSpace=wrap;html=1;" parent="1" vertex="1">
                    <mxGeometry x="200" y="1320" width="100" height="50" as="geometry"/>
                </mxCell>
                <mxCell id="fN0CVLOjRrCJmLAy6cqY-57" style="edgeStyle=none;rounded=0;orthogonalLoop=1;jettySize=auto;html=1;startArrow=none;startFill=0;endArrow=none;endFill=0;" parent="1" source="fN0CVLOjRrCJmLAy6cqY-48" target="fN0CVLOjRrCJmLAy6cqY-46" edge="1">
                    <mxGeometry relative="1" as="geometry"/>
                </mxCell>
                <mxCell id="fN0CVLOjRrCJmLAy6cqY-48" value="address" style="ellipse;whiteSpace=wrap;html=1;" parent="1" vertex="1">
                    <mxGeometry x="170" y="1380" width="100" height="50" as="geometry"/>
                </mxCell>
                <mxCell id="fN0CVLOjRrCJmLAy6cqY-58" style="edgeStyle=none;rounded=0;orthogonalLoop=1;jettySize=auto;html=1;startArrow=none;startFill=0;endArrow=none;endFill=0;" parent="1" source="fN0CVLOjRrCJmLAy6cqY-49" target="fN0CVLOjRrCJmLAy6cqY-46" edge="1">
                    <mxGeometry relative="1" as="geometry"/>
                </mxCell>
                <mxCell id="fN0CVLOjRrCJmLAy6cqY-49" value="phoneNumber" style="ellipse;whiteSpace=wrap;html=1;" parent="1" vertex="1">
                    <mxGeometry x="210" y="1610" width="100" height="50" as="geometry"/>
                </mxCell>
                <mxCell id="fN0CVLOjRrCJmLAy6cqY-59" style="edgeStyle=none;rounded=0;orthogonalLoop=1;jettySize=auto;html=1;startArrow=none;startFill=0;endArrow=none;endFill=0;" parent="1" source="fN0CVLOjRrCJmLAy6cqY-50" target="fN0CVLOjRrCJmLAy6cqY-46" edge="1">
                    <mxGeometry relative="1" as="geometry"/>
                </mxCell>
                <mxCell id="fN0CVLOjRrCJmLAy6cqY-50" value="webAddress" style="ellipse;whiteSpace=wrap;html=1;" parent="1" vertex="1">
                    <mxGeometry x="299.9999999999999" y="1650" width="100" height="50" as="geometry"/>
                </mxCell>
                <mxCell id="fN0CVLOjRrCJmLAy6cqY-61" style="edgeStyle=none;rounded=0;orthogonalLoop=1;jettySize=auto;html=1;startArrow=none;startFill=0;endArrow=none;endFill=0;" parent="1" source="fN0CVLOjRrCJmLAy6cqY-51" target="fN0CVLOjRrCJmLAy6cqY-46" edge="1">
                    <mxGeometry relative="1" as="geometry"/>
                </mxCell>
                <mxCell id="fN0CVLOjRrCJmLAy6cqY-51" value="facilityType" style="ellipse;whiteSpace=wrap;html=1;" parent="1" vertex="1">
                    <mxGeometry x="404.9999999999999" y="1660" width="100" height="50" as="geometry"/>
                </mxCell>
                <mxCell id="fN0CVLOjRrCJmLAy6cqY-60" style="edgeStyle=none;rounded=0;orthogonalLoop=1;jettySize=auto;html=1;startArrow=none;startFill=0;endArrow=none;endFill=0;" parent="1" source="fN0CVLOjRrCJmLAy6cqY-52" target="fN0CVLOjRrCJmLAy6cqY-46" edge="1">
                    <mxGeometry relative="1" as="geometry"/>
                </mxCell>
                <mxCell id="fN0CVLOjRrCJmLAy6cqY-52" value="capacity" style="ellipse;whiteSpace=wrap;html=1;" parent="1" vertex="1">
                    <mxGeometry x="509.9999999999999" y="1640" width="100" height="50" as="geometry"/>
                </mxCell>
                <mxCell id="fN0CVLOjRrCJmLAy6cqY-54" style="edgeStyle=none;rounded=0;orthogonalLoop=1;jettySize=auto;html=1;endArrow=classicThin;endFill=1;startArrow=none;startFill=0;" parent="1" source="fN0CVLOjRrCJmLAy6cqY-53" target="fN0CVLOjRrCJmLAy6cqY-37" edge="1">
                    <mxGeometry relative="1" as="geometry"/>
                </mxCell>
                <mxCell id="fN0CVLOjRrCJmLAy6cqY-55" style="edgeStyle=none;rounded=0;orthogonalLoop=1;jettySize=auto;html=1;startArrow=none;startFill=0;endArrow=classicThin;endFill=1;" parent="1" source="fN0CVLOjRrCJmLAy6cqY-53" target="fN0CVLOjRrCJmLAy6cqY-46" edge="1">
                    <mxGeometry relative="1" as="geometry">
                        <mxPoint x="789.9982978723405" y="1065.3191489361702" as="sourcePoint"/>
                    </mxGeometry>
                </mxCell>
                <mxCell id="fN0CVLOjRrCJmLAy6cqY-53" value="Manages" style="shape=rhombus;perimeter=rhombusPerimeter;whiteSpace=wrap;html=1;align=center;" parent="1" vertex="1">
                    <mxGeometry x="310" y="1275" width="120" height="60" as="geometry"/>
                </mxCell>
                <mxCell id="w_fWHOx0zTTc7LV7o_k5-16" style="edgeStyle=none;rounded=0;orthogonalLoop=1;jettySize=auto;html=1;endArrow=none;endFill=0;" parent="1" source="fN0CVLOjRrCJmLAy6cqY-64" target="w_fWHOx0zTTc7LV7o_k5-5" edge="1">
                    <mxGeometry relative="1" as="geometry"/>
                </mxCell>
                <mxCell id="fN0CVLOjRrCJmLAy6cqY-64" value="AgeGroups" style="rounded=0;whiteSpace=wrap;html=1;" parent="1" vertex="1">
                    <mxGeometry x="-345" y="590" width="120" height="60" as="geometry"/>
                </mxCell>
                <mxCell id="fN0CVLOjRrCJmLAy6cqY-67" style="edgeStyle=none;rounded=0;orthogonalLoop=1;jettySize=auto;html=1;startArrow=none;startFill=0;endArrow=none;endFill=0;" parent="1" source="fN0CVLOjRrCJmLAy6cqY-65" target="fN0CVLOjRrCJmLAy6cqY-64" edge="1">
                    <mxGeometry relative="1" as="geometry"/>
                </mxCell>
                <mxCell id="fN0CVLOjRrCJmLAy6cqY-65" value="&lt;u&gt;groupID&lt;/u&gt;" style="ellipse;whiteSpace=wrap;html=1;" parent="1" vertex="1">
                    <mxGeometry x="-395" y="510" width="100" height="50" as="geometry"/>
                </mxCell>
                <mxCell id="fN0CVLOjRrCJmLAy6cqY-68" style="edgeStyle=none;rounded=0;orthogonalLoop=1;jettySize=auto;html=1;startArrow=none;startFill=0;endArrow=none;endFill=0;" parent="1" source="fN0CVLOjRrCJmLAy6cqY-66" target="fN0CVLOjRrCJmLAy6cqY-64" edge="1">
                    <mxGeometry relative="1" as="geometry"/>
                </mxCell>
                <mxCell id="fN0CVLOjRrCJmLAy6cqY-66" value="groupDescription" style="ellipse;whiteSpace=wrap;html=1;" parent="1" vertex="1">
                    <mxGeometry x="-285" y="510" width="100" height="50" as="geometry"/>
                </mxCell>
                <mxCell id="fN0CVLOjRrCJmLAy6cqY-71" style="edgeStyle=none;rounded=0;orthogonalLoop=1;jettySize=auto;html=1;startArrow=none;startFill=0;endArrow=classicThin;endFill=1;" parent="1" source="fN0CVLOjRrCJmLAy6cqY-69" target="fN0CVLOjRrCJmLAy6cqY-64" edge="1">
                    <mxGeometry relative="1" as="geometry"/>
                </mxCell>
                <mxCell id="fN0CVLOjRrCJmLAy6cqY-72" style="edgeStyle=none;rounded=0;orthogonalLoop=1;jettySize=auto;html=1;startArrow=none;startFill=0;endArrow=none;endFill=0;" parent="1" source="fN0CVLOjRrCJmLAy6cqY-69" target="fN0CVLOjRrCJmLAy6cqY-1" edge="1">
                    <mxGeometry relative="1" as="geometry"/>
                </mxCell>
                <mxCell id="fN0CVLOjRrCJmLAy6cqY-69" value="Has A" style="shape=rhombus;perimeter=rhombusPerimeter;whiteSpace=wrap;html=1;align=center;" parent="1" vertex="1">
                    <mxGeometry x="-100" y="540" width="120" height="60" as="geometry"/>
                </mxCell>
                <mxCell id="fN0CVLOjRrCJmLAy6cqY-75" style="edgeStyle=none;rounded=0;orthogonalLoop=1;jettySize=auto;html=1;startArrow=none;startFill=0;endArrow=classicThin;endFill=1;" parent="1" source="fN0CVLOjRrCJmLAy6cqY-73" target="fN0CVLOjRrCJmLAy6cqY-37" edge="1">
                    <mxGeometry relative="1" as="geometry"/>
                </mxCell>
                <mxCell id="fN0CVLOjRrCJmLAy6cqY-76" style="edgeStyle=none;rounded=0;orthogonalLoop=1;jettySize=auto;html=1;startArrow=none;startFill=0;endArrow=none;endFill=0;" parent="1" source="fN0CVLOjRrCJmLAy6cqY-73" target="fN0CVLOjRrCJmLAy6cqY-1" edge="1">
                    <mxGeometry relative="1" as="geometry"/>
                </mxCell>
                <mxCell id="w_fWHOx0zTTc7LV7o_k5-15" style="edgeStyle=none;rounded=0;orthogonalLoop=1;jettySize=auto;html=1;endArrow=none;endFill=0;" parent="1" source="fN0CVLOjRrCJmLAy6cqY-73" target="w_fWHOx0zTTc7LV7o_k5-5" edge="1">
                    <mxGeometry relative="1" as="geometry"/>
                </mxCell>
                <mxCell id="fN0CVLOjRrCJmLAy6cqY-73" value="Vaccinations" style="shape=rhombus;perimeter=rhombusPerimeter;whiteSpace=wrap;html=1;align=center;" parent="1" vertex="1">
                    <mxGeometry x="-155" y="1215" width="120" height="60" as="geometry"/>
                </mxCell>
                <mxCell id="fN0CVLOjRrCJmLAy6cqY-82" style="edgeStyle=none;rounded=0;orthogonalLoop=1;jettySize=auto;html=1;startArrow=none;startFill=0;endArrow=none;endFill=0;" parent="1" source="fN0CVLOjRrCJmLAy6cqY-80" target="rsbw5ZafTSth3A3CcDGc-3" edge="1">
                    <mxGeometry relative="1" as="geometry"/>
                </mxCell>
                <mxCell id="fN0CVLOjRrCJmLAy6cqY-80" value="&lt;u&gt;infectionDate&lt;/u&gt;" style="ellipse;whiteSpace=wrap;html=1;" parent="1" vertex="1">
                    <mxGeometry x="775" y="665" width="100" height="50" as="geometry"/>
                </mxCell>
                <mxCell id="fN0CVLOjRrCJmLAy6cqY-93" style="edgeStyle=none;rounded=0;orthogonalLoop=1;jettySize=auto;html=1;startArrow=none;startFill=0;endArrow=none;endFill=0;" parent="1" source="fN0CVLOjRrCJmLAy6cqY-85" target="fN0CVLOjRrCJmLAy6cqY-73" edge="1">
                    <mxGeometry relative="1" as="geometry"/>
                </mxCell>
                <mxCell id="fN0CVLOjRrCJmLAy6cqY-85" value="doseNumber" style="ellipse;whiteSpace=wrap;html=1;" parent="1" vertex="1">
                    <mxGeometry x="75" y="1345" width="100" height="50" as="geometry"/>
                </mxCell>
                <mxCell id="fN0CVLOjRrCJmLAy6cqY-92" style="edgeStyle=none;rounded=0;orthogonalLoop=1;jettySize=auto;html=1;startArrow=none;startFill=0;endArrow=none;endFill=0;" parent="1" source="fN0CVLOjRrCJmLAy6cqY-86" target="fN0CVLOjRrCJmLAy6cqY-73" edge="1">
                    <mxGeometry relative="1" as="geometry"/>
                </mxCell>
                <mxCell id="fN0CVLOjRrCJmLAy6cqY-86" value="vaccinationDate" style="ellipse;whiteSpace=wrap;html=1;" parent="1" vertex="1">
                    <mxGeometry x="-310" y="1360" width="100" height="50" as="geometry"/>
                </mxCell>
                <mxCell id="fN0CVLOjRrCJmLAy6cqY-94" style="edgeStyle=none;rounded=0;orthogonalLoop=1;jettySize=auto;html=1;startArrow=none;startFill=0;endArrow=none;endFill=0;" parent="1" source="fN0CVLOjRrCJmLAy6cqY-88" target="fN0CVLOjRrCJmLAy6cqY-73" edge="1">
                    <mxGeometry relative="1" as="geometry"/>
                </mxCell>
                <mxCell id="fN0CVLOjRrCJmLAy6cqY-87" value="location" style="ellipse;whiteSpace=wrap;html=1;" parent="1" vertex="1">
                    <mxGeometry x="-155" y="1445" width="100" height="50" as="geometry"/>
                </mxCell>
                <mxCell id="fN0CVLOjRrCJmLAy6cqY-96" value="country" style="ellipse;whiteSpace=wrap;html=1;" parent="1" vertex="1">
                    <mxGeometry x="50" y="1410" width="100" height="50" as="geometry"/>
                </mxCell>
                <mxCell id="fN0CVLOjRrCJmLAy6cqY-107" style="edgeStyle=none;rounded=0;orthogonalLoop=1;jettySize=auto;html=1;startArrow=none;startFill=0;endArrow=none;endFill=0;" parent="1" source="fN0CVLOjRrCJmLAy6cqY-98" target="fN0CVLOjRrCJmLAy6cqY-73" edge="1">
                    <mxGeometry relative="1" as="geometry"/>
                </mxCell>
                <mxCell id="fN0CVLOjRrCJmLAy6cqY-98" value="ApprovedVaccines" style="rounded=0;whiteSpace=wrap;html=1;" parent="1" vertex="1">
                    <mxGeometry x="-405" y="1212.5" width="120" height="60" as="geometry"/>
                </mxCell>
                <mxCell id="fN0CVLOjRrCJmLAy6cqY-104" style="edgeStyle=none;rounded=0;orthogonalLoop=1;jettySize=auto;html=1;startArrow=none;startFill=0;endArrow=none;endFill=0;" parent="1" source="fN0CVLOjRrCJmLAy6cqY-99" target="fN0CVLOjRrCJmLAy6cqY-98" edge="1">
                    <mxGeometry relative="1" as="geometry"/>
                </mxCell>
                <mxCell id="fN0CVLOjRrCJmLAy6cqY-99" value="&lt;u&gt;vaccinationName&lt;/u&gt;" style="ellipse;whiteSpace=wrap;html=1;" parent="1" vertex="1">
                    <mxGeometry x="-605" y="1307.5" width="100" height="50" as="geometry"/>
                </mxCell>
                <mxCell id="fN0CVLOjRrCJmLAy6cqY-103" style="edgeStyle=none;rounded=0;orthogonalLoop=1;jettySize=auto;html=1;startArrow=none;startFill=0;endArrow=none;endFill=0;" parent="1" source="fN0CVLOjRrCJmLAy6cqY-100" target="fN0CVLOjRrCJmLAy6cqY-98" edge="1">
                    <mxGeometry relative="1" as="geometry"/>
                </mxCell>
                <mxCell id="fN0CVLOjRrCJmLAy6cqY-100" value="dateOfApproval" style="ellipse;whiteSpace=wrap;html=1;" parent="1" vertex="1">
                    <mxGeometry x="-590" y="1217.5" width="100" height="50" as="geometry"/>
                </mxCell>
                <mxCell id="fN0CVLOjRrCJmLAy6cqY-105" style="edgeStyle=none;rounded=0;orthogonalLoop=1;jettySize=auto;html=1;startArrow=none;startFill=0;endArrow=none;endFill=0;" parent="1" source="fN0CVLOjRrCJmLAy6cqY-101" target="fN0CVLOjRrCJmLAy6cqY-98" edge="1">
                    <mxGeometry relative="1" as="geometry"/>
                </mxCell>
                <mxCell id="fN0CVLOjRrCJmLAy6cqY-101" value="vaccinationType (SAFE/SUSPENDED)" style="ellipse;whiteSpace=wrap;html=1;" parent="1" vertex="1">
                    <mxGeometry x="-605" y="1110" width="130.64" height="80" as="geometry"/>
                </mxCell>
                <mxCell id="fN0CVLOjRrCJmLAy6cqY-106" style="edgeStyle=none;rounded=0;orthogonalLoop=1;jettySize=auto;html=1;startArrow=none;startFill=0;endArrow=none;endFill=0;" parent="1" source="fN0CVLOjRrCJmLAy6cqY-102" target="fN0CVLOjRrCJmLAy6cqY-98" edge="1">
                    <mxGeometry relative="1" as="geometry"/>
                </mxCell>
                <mxCell id="fN0CVLOjRrCJmLAy6cqY-102" value="dateOfSuspension" style="ellipse;whiteSpace=wrap;html=1;" parent="1" vertex="1">
                    <mxGeometry x="-465" y="1110" width="100" height="50" as="geometry"/>
                </mxCell>
                <mxCell id="fN0CVLOjRrCJmLAy6cqY-110" style="edgeStyle=none;rounded=0;orthogonalLoop=1;jettySize=auto;html=1;startArrow=none;startFill=0;endArrow=none;endFill=0;" parent="1" source="fN0CVLOjRrCJmLAy6cqY-108" target="fN0CVLOjRrCJmLAy6cqY-46" edge="1">
                    <mxGeometry relative="1" as="geometry"/>
                </mxCell>
                <mxCell id="fN0CVLOjRrCJmLAy6cqY-108" value="Assignments" style="shape=rhombus;perimeter=rhombusPerimeter;whiteSpace=wrap;html=1;align=center;" parent="1" vertex="1">
                    <mxGeometry x="760" y="1405" width="120" height="60" as="geometry"/>
                </mxCell>
                <mxCell id="fN0CVLOjRrCJmLAy6cqY-115" style="edgeStyle=none;rounded=0;orthogonalLoop=1;jettySize=auto;html=1;startArrow=none;startFill=0;endArrow=none;endFill=0;" parent="1" source="fN0CVLOjRrCJmLAy6cqY-112" target="fN0CVLOjRrCJmLAy6cqY-108" edge="1">
                    <mxGeometry relative="1" as="geometry"/>
                </mxCell>
                <mxCell id="fN0CVLOjRrCJmLAy6cqY-112" value="startDate" style="ellipse;whiteSpace=wrap;html=1;" parent="1" vertex="1">
                    <mxGeometry x="1019.9999999999999" y="1370" width="100" height="50" as="geometry"/>
                </mxCell>
                <mxCell id="fN0CVLOjRrCJmLAy6cqY-114" style="edgeStyle=none;rounded=0;orthogonalLoop=1;jettySize=auto;html=1;startArrow=none;startFill=0;endArrow=none;endFill=0;" parent="1" source="fN0CVLOjRrCJmLAy6cqY-113" target="fN0CVLOjRrCJmLAy6cqY-108" edge="1">
                    <mxGeometry relative="1" as="geometry"/>
                </mxCell>
                <mxCell id="fN0CVLOjRrCJmLAy6cqY-113" value="endDate" style="ellipse;whiteSpace=wrap;html=1;" parent="1" vertex="1">
                    <mxGeometry x="1030" y="1430" width="100" height="50" as="geometry"/>
                </mxCell>
                <mxCell id="fN0CVLOjRrCJmLAy6cqY-122" style="edgeStyle=none;rounded=0;orthogonalLoop=1;jettySize=auto;html=1;startArrow=none;startFill=0;endArrow=none;endFill=0;" parent="1" source="fN0CVLOjRrCJmLAy6cqY-116" target="fN0CVLOjRrCJmLAy6cqY-120" edge="1">
                    <mxGeometry relative="1" as="geometry"/>
                </mxCell>
                <mxCell id="fN0CVLOjRrCJmLAy6cqY-116" value="Registered" style="rounded=0;whiteSpace=wrap;html=1;" parent="1" vertex="1">
                    <mxGeometry x="485" y="850" width="120" height="60" as="geometry"/>
                </mxCell>
                <mxCell id="fN0CVLOjRrCJmLAy6cqY-123" style="edgeStyle=none;rounded=0;orthogonalLoop=1;jettySize=auto;html=1;startArrow=none;startFill=0;endArrow=none;endFill=0;" parent="1" source="fN0CVLOjRrCJmLAy6cqY-117" target="fN0CVLOjRrCJmLAy6cqY-121" edge="1">
                    <mxGeometry relative="1" as="geometry"/>
                </mxCell>
                <mxCell id="fN0CVLOjRrCJmLAy6cqY-117" value="Unregistered" style="rounded=0;whiteSpace=wrap;html=1;" parent="1" vertex="1">
                    <mxGeometry x="665" y="860" width="120" height="60" as="geometry"/>
                </mxCell>
                <mxCell id="fN0CVLOjRrCJmLAy6cqY-124" style="edgeStyle=none;rounded=0;orthogonalLoop=1;jettySize=auto;html=1;startArrow=none;startFill=0;endArrow=none;endFill=0;" parent="1" source="fN0CVLOjRrCJmLAy6cqY-120" target="fN0CVLOjRrCJmLAy6cqY-1" edge="1">
                    <mxGeometry relative="1" as="geometry"/>
                </mxCell>
                <mxCell id="fN0CVLOjRrCJmLAy6cqY-120" value="isa" style="verticalLabelPosition=middle;verticalAlign=middle;html=1;shape=mxgraph.basic.acute_triangle;dx=0.5;labelPosition=center;align=center;" parent="1" vertex="1">
                    <mxGeometry x="510" y="710" width="100" height="70" as="geometry"/>
                </mxCell>
                <mxCell id="fN0CVLOjRrCJmLAy6cqY-125" style="edgeStyle=none;rounded=0;orthogonalLoop=1;jettySize=auto;html=1;startArrow=none;startFill=0;endArrow=none;endFill=0;" parent="1" source="fN0CVLOjRrCJmLAy6cqY-121" target="fN0CVLOjRrCJmLAy6cqY-1" edge="1">
                    <mxGeometry relative="1" as="geometry"/>
                </mxCell>
                <mxCell id="fN0CVLOjRrCJmLAy6cqY-121" value="isa" style="verticalLabelPosition=middle;verticalAlign=middle;html=1;shape=mxgraph.basic.acute_triangle;dx=0.5;labelPosition=center;align=center;" parent="1" vertex="1">
                    <mxGeometry x="620" y="720" width="100" height="70" as="geometry"/>
                </mxCell>
                <mxCell id="rsbw5ZafTSth3A3CcDGc-3" value="InfectionHistory" style="shape=rhombus;perimeter=rhombusPerimeter;whiteSpace=wrap;html=1;align=center;" parent="1" vertex="1">
                    <mxGeometry x="795" y="560" width="120" height="60" as="geometry"/>
                </mxCell>
                <mxCell id="rsbw5ZafTSth3A3CcDGc-8" style="edgeStyle=none;rounded=0;orthogonalLoop=1;jettySize=auto;html=1;endArrow=none;endFill=0;" parent="1" source="rsbw5ZafTSth3A3CcDGc-7" target="fN0CVLOjRrCJmLAy6cqY-37" edge="1">
                    <mxGeometry relative="1" as="geometry"/>
                </mxCell>
                <mxCell id="rsbw5ZafTSth3A3CcDGc-7" value="employeeType" style="ellipse;whiteSpace=wrap;html=1;" parent="1" vertex="1">
                    <mxGeometry x="310" y="1097.5" width="100" height="50" as="geometry"/>
                </mxCell>
                <mxCell id="rsbw5ZafTSth3A3CcDGc-9" value="" style="edgeStyle=none;rounded=0;orthogonalLoop=1;jettySize=auto;html=1;startArrow=none;startFill=0;endArrow=none;endFill=0;" parent="1" source="fN0CVLOjRrCJmLAy6cqY-87" target="fN0CVLOjRrCJmLAy6cqY-73" edge="1">
                    <mxGeometry relative="1" as="geometry">
                        <mxPoint x="-112.98741437039007" y="1460.0202607148422" as="sourcePoint"/>
                        <mxPoint x="-97.40000000000009" y="1273.8" as="targetPoint"/>
                    </mxGeometry>
                </mxCell>
                <mxCell id="fN0CVLOjRrCJmLAy6cqY-88" value="lotNumber" style="ellipse;whiteSpace=wrap;html=1;" parent="1" vertex="1">
                    <mxGeometry x="-255" y="1415" width="100" height="50" as="geometry"/>
                </mxCell>
                <mxCell id="rsbw5ZafTSth3A3CcDGc-10" value="" style="edgeStyle=none;rounded=0;orthogonalLoop=1;jettySize=auto;html=1;startArrow=none;startFill=0;endArrow=none;endFill=0;" parent="1" source="fN0CVLOjRrCJmLAy6cqY-96" target="fN0CVLOjRrCJmLAy6cqY-73" edge="1">
                    <mxGeometry relative="1" as="geometry">
                        <mxPoint x="-182.7778817344913" y="1545.2621696192919" as="sourcePoint"/>
                        <mxPoint x="-102.65100671140931" y="1271.1744966442952" as="targetPoint"/>
                    </mxGeometry>
                </mxCell>
                <mxCell id="yu44YNeLymq80cOcVDnr-4" style="rounded=0;orthogonalLoop=1;jettySize=auto;html=1;endArrow=none;endFill=0;" parent="1" source="yu44YNeLymq80cOcVDnr-1" target="fN0CVLOjRrCJmLAy6cqY-46" edge="1">
                    <mxGeometry relative="1" as="geometry"/>
                </mxCell>
                <mxCell id="yu44YNeLymq80cOcVDnr-1" value="province" style="ellipse;whiteSpace=wrap;html=1;" parent="1" vertex="1">
                    <mxGeometry x="145" y="1500" width="100" height="50" as="geometry"/>
                </mxCell>
                <mxCell id="yu44YNeLymq80cOcVDnr-5" style="edgeStyle=none;rounded=0;orthogonalLoop=1;jettySize=auto;html=1;endArrow=none;endFill=0;" parent="1" source="yu44YNeLymq80cOcVDnr-2" target="fN0CVLOjRrCJmLAy6cqY-46" edge="1">
                    <mxGeometry relative="1" as="geometry"/>
                </mxCell>
                <mxCell id="yu44YNeLymq80cOcVDnr-2" value="country" style="ellipse;whiteSpace=wrap;html=1;" parent="1" vertex="1">
                    <mxGeometry x="160" y="1560" width="100" height="50" as="geometry"/>
                </mxCell>
                <mxCell id="yu44YNeLymq80cOcVDnr-7" style="edgeStyle=none;rounded=0;orthogonalLoop=1;jettySize=auto;html=1;endArrow=none;endFill=0;" parent="1" source="yu44YNeLymq80cOcVDnr-6" target="fN0CVLOjRrCJmLAy6cqY-73" edge="1">
                    <mxGeometry relative="1" as="geometry"/>
                </mxCell>
                <mxCell id="yu44YNeLymq80cOcVDnr-6" value="province" style="ellipse;whiteSpace=wrap;html=1;" parent="1" vertex="1">
                    <mxGeometry x="-50" y="1435" width="100" height="50" as="geometry"/>
                </mxCell>
                <mxCell id="5nXnGrNtzh2ahWJ7_uTH-2" style="rounded=0;orthogonalLoop=1;jettySize=auto;html=1;endArrow=none;endFill=0;" parent="1" source="5nXnGrNtzh2ahWJ7_uTH-1" target="fN0CVLOjRrCJmLAy6cqY-1" edge="1">
                    <mxGeometry relative="1" as="geometry"/>
                </mxCell>
                <mxCell id="5nXnGrNtzh2ahWJ7_uTH-1" value="middleInitial" style="ellipse;whiteSpace=wrap;html=1;" parent="1" vertex="1">
                    <mxGeometry x="165.64" y="510" width="100" height="50" as="geometry"/>
                </mxCell>
                <mxCell id="5nXnGrNtzh2ahWJ7_uTH-6" style="edgeStyle=none;rounded=0;orthogonalLoop=1;jettySize=auto;html=1;endArrow=none;endFill=0;" parent="1" source="5nXnGrNtzh2ahWJ7_uTH-5" target="fN0CVLOjRrCJmLAy6cqY-108" edge="1">
                    <mxGeometry relative="1" as="geometry"/>
                </mxCell>
                <mxCell id="5nXnGrNtzh2ahWJ7_uTH-5" value="hourlyWage" style="ellipse;whiteSpace=wrap;html=1;" parent="1" vertex="1">
                    <mxGeometry x="999.9999999999999" y="1500" width="100" height="50" as="geometry"/>
                </mxCell>
                <mxCell id="5nXnGrNtzh2ahWJ7_uTH-7" value="InfectionTypes" style="rounded=0;whiteSpace=wrap;html=1;" parent="1" vertex="1">
                    <mxGeometry x="1010" y="660" width="120" height="60" as="geometry"/>
                </mxCell>
                <mxCell id="5nXnGrNtzh2ahWJ7_uTH-10" style="edgeStyle=none;rounded=0;orthogonalLoop=1;jettySize=auto;html=1;endArrow=none;endFill=0;" parent="1" source="5nXnGrNtzh2ahWJ7_uTH-8" target="5nXnGrNtzh2ahWJ7_uTH-7" edge="1">
                    <mxGeometry relative="1" as="geometry"/>
                </mxCell>
                <mxCell id="5nXnGrNtzh2ahWJ7_uTH-8" value="&lt;u&gt;infectionID&lt;/u&gt;" style="ellipse;whiteSpace=wrap;html=1;" parent="1" vertex="1">
                    <mxGeometry x="1200" y="590" width="100" height="50" as="geometry"/>
                </mxCell>
                <mxCell id="5nXnGrNtzh2ahWJ7_uTH-11" style="edgeStyle=none;rounded=0;orthogonalLoop=1;jettySize=auto;html=1;endArrow=none;endFill=0;" parent="1" source="5nXnGrNtzh2ahWJ7_uTH-9" target="5nXnGrNtzh2ahWJ7_uTH-7" edge="1">
                    <mxGeometry relative="1" as="geometry"/>
                </mxCell>
                <mxCell id="5nXnGrNtzh2ahWJ7_uTH-9" value="infectionType" style="ellipse;whiteSpace=wrap;html=1;" parent="1" vertex="1">
                    <mxGeometry x="1225" y="680" width="100" height="50" as="geometry"/>
                </mxCell>
                <mxCell id="5nXnGrNtzh2ahWJ7_uTH-13" style="edgeStyle=none;rounded=0;orthogonalLoop=1;jettySize=auto;html=1;endArrow=none;endFill=0;" parent="1" source="rsbw5ZafTSth3A3CcDGc-3" target="5nXnGrNtzh2ahWJ7_uTH-7" edge="1">
                    <mxGeometry relative="1" as="geometry">
                        <mxPoint x="1116.666666666667" y="786.6666666666665" as="sourcePoint"/>
                    </mxGeometry>
                </mxCell>
                <mxCell id="5nXnGrNtzh2ahWJ7_uTH-16" value="FacilitySchedule" style="rounded=0;whiteSpace=wrap;html=1;" parent="1" vertex="1">
                    <mxGeometry x="848" y="1620" width="120" height="60" as="geometry"/>
                </mxCell>
                <mxCell id="5nXnGrNtzh2ahWJ7_uTH-18" style="edgeStyle=none;rounded=0;orthogonalLoop=1;jettySize=auto;html=1;endArrow=classic;endFill=1;" parent="1" source="5nXnGrNtzh2ahWJ7_uTH-17" target="5nXnGrNtzh2ahWJ7_uTH-16" edge="1">
                    <mxGeometry relative="1" as="geometry"/>
                </mxCell>
                <mxCell id="5nXnGrNtzh2ahWJ7_uTH-19" style="edgeStyle=none;rounded=0;orthogonalLoop=1;jettySize=auto;html=1;endArrow=classic;endFill=1;" parent="1" source="5nXnGrNtzh2ahWJ7_uTH-17" target="fN0CVLOjRrCJmLAy6cqY-46" edge="1">
                    <mxGeometry relative="1" as="geometry"/>
                </mxCell>
                <mxCell id="5nXnGrNtzh2ahWJ7_uTH-17" value="Operating Hours" style="shape=rhombus;perimeter=rhombusPerimeter;whiteSpace=wrap;html=1;align=center;" parent="1" vertex="1">
                    <mxGeometry x="675" y="1525" width="120" height="60" as="geometry"/>
                </mxCell>
                <mxCell id="5nXnGrNtzh2ahWJ7_uTH-21" style="edgeStyle=none;rounded=0;orthogonalLoop=1;jettySize=auto;html=1;endArrow=none;endFill=0;" parent="1" source="5nXnGrNtzh2ahWJ7_uTH-20" target="fN0CVLOjRrCJmLAy6cqY-46" edge="1">
                    <mxGeometry relative="1" as="geometry"/>
                </mxCell>
                <mxCell id="5nXnGrNtzh2ahWJ7_uTH-20" value="category" style="ellipse;whiteSpace=wrap;html=1;" parent="1" vertex="1">
                    <mxGeometry x="609.9999999999999" y="1600" width="100" height="50" as="geometry"/>
                </mxCell>
                <mxCell id="5nXnGrNtzh2ahWJ7_uTH-24" style="edgeStyle=none;rounded=0;orthogonalLoop=1;jettySize=auto;html=1;endArrow=none;endFill=0;" parent="1" source="5nXnGrNtzh2ahWJ7_uTH-22" target="5nXnGrNtzh2ahWJ7_uTH-16" edge="1">
                    <mxGeometry relative="1" as="geometry"/>
                </mxCell>
                <mxCell id="5nXnGrNtzh2ahWJ7_uTH-22" value="days" style="ellipse;whiteSpace=wrap;html=1;" parent="1" vertex="1">
                    <mxGeometry x="794.9999999999999" y="1700" width="100" height="50" as="geometry"/>
                </mxCell>
                <mxCell id="5nXnGrNtzh2ahWJ7_uTH-25" style="edgeStyle=none;rounded=0;orthogonalLoop=1;jettySize=auto;html=1;endArrow=none;endFill=0;" parent="1" source="5nXnGrNtzh2ahWJ7_uTH-23" target="5nXnGrNtzh2ahWJ7_uTH-16" edge="1">
                    <mxGeometry relative="1" as="geometry"/>
                </mxCell>
                <mxCell id="5nXnGrNtzh2ahWJ7_uTH-23" value="openingHour" style="ellipse;whiteSpace=wrap;html=1;" parent="1" vertex="1">
                    <mxGeometry x="919.9999999999999" y="1700" width="100" height="50" as="geometry"/>
                </mxCell>
                <mxCell id="5nXnGrNtzh2ahWJ7_uTH-31" style="edgeStyle=none;rounded=0;orthogonalLoop=1;jettySize=auto;html=1;endArrow=none;endFill=0;" parent="1" source="5nXnGrNtzh2ahWJ7_uTH-26" target="5nXnGrNtzh2ahWJ7_uTH-30" edge="1">
                    <mxGeometry relative="1" as="geometry"/>
                </mxCell>
                <mxCell id="5nXnGrNtzh2ahWJ7_uTH-26" value="Appointments" style="rounded=0;whiteSpace=wrap;html=1;" parent="1" vertex="1">
                    <mxGeometry x="-60" y="800" width="120" height="60" as="geometry"/>
                </mxCell>
                <mxCell id="5nXnGrNtzh2ahWJ7_uTH-28" style="edgeStyle=none;rounded=0;orthogonalLoop=1;jettySize=auto;html=1;endArrow=none;endFill=0;" parent="1" source="5nXnGrNtzh2ahWJ7_uTH-27" target="fN0CVLOjRrCJmLAy6cqY-1" edge="1">
                    <mxGeometry relative="1" as="geometry"/>
                </mxCell>
                <mxCell id="5nXnGrNtzh2ahWJ7_uTH-29" style="edgeStyle=none;rounded=0;orthogonalLoop=1;jettySize=auto;html=1;endArrow=none;endFill=0;" parent="1" source="5nXnGrNtzh2ahWJ7_uTH-27" target="5nXnGrNtzh2ahWJ7_uTH-26" edge="1">
                    <mxGeometry relative="1" as="geometry"/>
                </mxCell>
                <mxCell id="5nXnGrNtzh2ahWJ7_uTH-27" value="Booking" style="shape=rhombus;perimeter=rhombusPerimeter;whiteSpace=wrap;html=1;align=center;" parent="1" vertex="1">
                    <mxGeometry x="155.64" y="725" width="120" height="60" as="geometry"/>
                </mxCell>
                <mxCell id="5nXnGrNtzh2ahWJ7_uTH-32" style="edgeStyle=none;rounded=0;orthogonalLoop=1;jettySize=auto;html=1;endArrow=none;endFill=0;" parent="1" source="5nXnGrNtzh2ahWJ7_uTH-30" target="fN0CVLOjRrCJmLAy6cqY-46" edge="1">
                    <mxGeometry relative="1" as="geometry"/>
                </mxCell>
                <mxCell id="5nXnGrNtzh2ahWJ7_uTH-30" value="Location" style="shape=rhombus;perimeter=rhombusPerimeter;whiteSpace=wrap;html=1;align=center;" parent="1" vertex="1">
                    <mxGeometry x="39.999999999999986" y="990" width="120" height="60" as="geometry"/>
                </mxCell>
                <mxCell id="5nXnGrNtzh2ahWJ7_uTH-34" style="edgeStyle=none;rounded=0;orthogonalLoop=1;jettySize=auto;html=1;endArrow=none;endFill=0;" parent="1" source="5nXnGrNtzh2ahWJ7_uTH-33" target="5nXnGrNtzh2ahWJ7_uTH-26" edge="1">
                    <mxGeometry relative="1" as="geometry"/>
                </mxCell>
                <mxCell id="5nXnGrNtzh2ahWJ7_uTH-33" value="date" style="ellipse;whiteSpace=wrap;html=1;" parent="1" vertex="1">
                    <mxGeometry x="-200" y="840" width="100" height="50" as="geometry"/>
                </mxCell>
                <mxCell id="5nXnGrNtzh2ahWJ7_uTH-36" style="edgeStyle=none;rounded=0;orthogonalLoop=1;jettySize=auto;html=1;endArrow=none;endFill=0;" parent="1" source="5nXnGrNtzh2ahWJ7_uTH-35" target="5nXnGrNtzh2ahWJ7_uTH-26" edge="1">
                    <mxGeometry relative="1" as="geometry"/>
                </mxCell>
                <mxCell id="5nXnGrNtzh2ahWJ7_uTH-35" value="time" style="ellipse;whiteSpace=wrap;html=1;" parent="1" vertex="1">
                    <mxGeometry x="-160" y="902.5" width="100" height="50" as="geometry"/>
                </mxCell>
                <mxCell id="5nXnGrNtzh2ahWJ7_uTH-42" style="edgeStyle=none;rounded=0;orthogonalLoop=1;jettySize=auto;html=1;endArrow=none;endFill=0;" parent="1" source="5nXnGrNtzh2ahWJ7_uTH-37" target="fN0CVLOjRrCJmLAy6cqY-37" edge="1">
                    <mxGeometry relative="1" as="geometry"/>
                </mxCell>
                <mxCell id="5nXnGrNtzh2ahWJ7_uTH-43" style="edgeStyle=none;rounded=0;orthogonalLoop=1;jettySize=auto;html=1;endArrow=none;endFill=0;" parent="1" source="5nXnGrNtzh2ahWJ7_uTH-37" target="fN0CVLOjRrCJmLAy6cqY-46" edge="1">
                    <mxGeometry relative="1" as="geometry"/>
                </mxCell>
                <mxCell id="5nXnGrNtzh2ahWJ7_uTH-37" value="WorkerSchedule" style="shape=rhombus;perimeter=rhombusPerimeter;whiteSpace=wrap;html=1;align=center;" parent="1" vertex="1">
                    <mxGeometry x="420" y="1335" width="120" height="60" as="geometry"/>
                </mxCell>
                <mxCell id="5nXnGrNtzh2ahWJ7_uTH-41" style="edgeStyle=none;rounded=0;orthogonalLoop=1;jettySize=auto;html=1;endArrow=none;endFill=0;" parent="1" source="5nXnGrNtzh2ahWJ7_uTH-38" target="5nXnGrNtzh2ahWJ7_uTH-37" edge="1">
                    <mxGeometry relative="1" as="geometry"/>
                </mxCell>
                <mxCell id="5nXnGrNtzh2ahWJ7_uTH-38" value="day" style="ellipse;whiteSpace=wrap;html=1;" parent="1" vertex="1">
                    <mxGeometry x="574.9999999999999" y="1330" width="100" height="50" as="geometry"/>
                </mxCell>
                <mxCell id="5nXnGrNtzh2ahWJ7_uTH-40" style="edgeStyle=none;rounded=0;orthogonalLoop=1;jettySize=auto;html=1;endArrow=none;endFill=0;" parent="1" source="5nXnGrNtzh2ahWJ7_uTH-39" target="5nXnGrNtzh2ahWJ7_uTH-37" edge="1">
                    <mxGeometry relative="1" as="geometry"/>
                </mxCell>
                <mxCell id="5nXnGrNtzh2ahWJ7_uTH-39" value="startingHour" style="ellipse;whiteSpace=wrap;html=1;" parent="1" vertex="1">
                    <mxGeometry x="574.9999999999999" y="1390" width="100" height="50" as="geometry"/>
                </mxCell>
                <mxCell id="5nXnGrNtzh2ahWJ7_uTH-45" style="edgeStyle=none;rounded=0;orthogonalLoop=1;jettySize=auto;html=1;endArrow=none;endFill=0;" parent="1" source="5nXnGrNtzh2ahWJ7_uTH-44" target="fN0CVLOjRrCJmLAy6cqY-37" edge="1">
                    <mxGeometry relative="1" as="geometry"/>
                </mxCell>
                <mxCell id="5nXnGrNtzh2ahWJ7_uTH-44" value="ssn" style="ellipse;whiteSpace=wrap;html=1;" parent="1" vertex="1">
                    <mxGeometry x="285" y="1190" width="100" height="50" as="geometry"/>
                </mxCell>
                <mxCell id="5nXnGrNtzh2ahWJ7_uTH-47" style="edgeStyle=none;rounded=0;orthogonalLoop=1;jettySize=auto;html=1;endArrow=none;endFill=0;" parent="1" source="5nXnGrNtzh2ahWJ7_uTH-46" target="5nXnGrNtzh2ahWJ7_uTH-37" edge="1">
                    <mxGeometry relative="1" as="geometry"/>
                </mxCell>
                <mxCell id="5nXnGrNtzh2ahWJ7_uTH-46" value="endingHour" style="ellipse;whiteSpace=wrap;html=1;" parent="1" vertex="1">
                    <mxGeometry x="475.6399999999999" y="1415" width="100" height="50" as="geometry"/>
                </mxCell>
                <mxCell id="5nXnGrNtzh2ahWJ7_uTH-49" style="edgeStyle=none;rounded=0;orthogonalLoop=1;jettySize=auto;html=1;endArrow=none;endFill=0;" parent="1" source="5nXnGrNtzh2ahWJ7_uTH-48" target="fN0CVLOjRrCJmLAy6cqY-108" edge="1">
                    <mxGeometry relative="1" as="geometry"/>
                </mxCell>
                <mxCell id="5nXnGrNtzh2ahWJ7_uTH-48" value="&lt;u&gt;workerID&lt;/u&gt;" style="ellipse;whiteSpace=wrap;html=1;" parent="1" vertex="1">
                    <mxGeometry x="920" y="1550" width="100" height="50" as="geometry"/>
                </mxCell>
                <mxCell id="w_fWHOx0zTTc7LV7o_k5-14" style="edgeStyle=none;rounded=0;orthogonalLoop=1;jettySize=auto;html=1;endArrow=none;endFill=0;" parent="1" source="w_fWHOx0zTTc7LV7o_k5-5" target="w_fWHOx0zTTc7LV7o_k5-12" edge="1">
                    <mxGeometry relative="1" as="geometry"/>
                </mxCell>
                <mxCell id="w_fWHOx0zTTc7LV7o_k5-5" value="Province&lt;br&gt;" style="rounded=0;whiteSpace=wrap;html=1;" parent="1" vertex="1">
                    <mxGeometry x="-425" y="910" width="120" height="60" as="geometry"/>
                </mxCell>
                <mxCell id="w_fWHOx0zTTc7LV7o_k5-8" style="edgeStyle=none;rounded=0;orthogonalLoop=1;jettySize=auto;html=1;endArrow=none;endFill=0;" parent="1" source="w_fWHOx0zTTc7LV7o_k5-7" target="fN0CVLOjRrCJmLAy6cqY-46" edge="1">
                    <mxGeometry relative="1" as="geometry"/>
                </mxCell>
                <mxCell id="w_fWHOx0zTTc7LV7o_k5-9" style="edgeStyle=none;rounded=0;orthogonalLoop=1;jettySize=auto;html=1;entryX=1;entryY=0.5;entryDx=0;entryDy=0;endArrow=none;endFill=0;" parent="1" source="w_fWHOx0zTTc7LV7o_k5-7" target="w_fWHOx0zTTc7LV7o_k5-5" edge="1">
                    <mxGeometry relative="1" as="geometry"/>
                </mxCell>
                <mxCell id="w_fWHOx0zTTc7LV7o_k5-7" value="Has" style="shape=rhombus;perimeter=rhombusPerimeter;whiteSpace=wrap;html=1;align=center;" parent="1" vertex="1">
                    <mxGeometry x="50" y="1120" width="120" height="60" as="geometry"/>
                </mxCell>
                <mxCell id="w_fWHOx0zTTc7LV7o_k5-12" value="Has" style="shape=rhombus;perimeter=rhombusPerimeter;whiteSpace=wrap;html=1;align=center;" parent="1" vertex="1">
                    <mxGeometry x="-80" y="680" width="120" height="60" as="geometry"/>
                </mxCell>
                <mxCell id="w_fWHOx0zTTc7LV7o_k5-18" style="edgeStyle=none;rounded=0;orthogonalLoop=1;jettySize=auto;html=1;endArrow=none;endFill=0;" parent="1" source="w_fWHOx0zTTc7LV7o_k5-17" target="5nXnGrNtzh2ahWJ7_uTH-16" edge="1">
                    <mxGeometry relative="1" as="geometry"/>
                </mxCell>
                <mxCell id="w_fWHOx0zTTc7LV7o_k5-17" value="closingHour" style="ellipse;whiteSpace=wrap;html=1;" parent="1" vertex="1">
                    <mxGeometry x="1009.9999999999999" y="1650" width="100" height="50" as="geometry"/>
                </mxCell>
                <mxCell id="2" value="city" style="ellipse;whiteSpace=wrap;html=1;" vertex="1" parent="1">
                    <mxGeometry x="150" y="1440" width="100" height="50" as="geometry"/>
                </mxCell>
            </root>
        </mxGraphModel>
    </diagram>
</mxfile>